PathFileType	4	(X/Y/Z)	pose_F01_0-93.trc
DataRate	CameraRate	NumFrames	NumMarkers	Units	OrigDataRate	OrigDataStartFrame	OrigNumFrames
30	30	8	21	m	30	81	93
Frame#	Time	CHip			RHip			RKnee			RAnkle			RBigToe			RSmallToe			RHeel			LHip			LKnee			LAnkle			LBigToe			LSmallToe			LHeel			Neck			Nose			RShoulder			RElbow			RWrist			LShoulder			LElbow			LWrist			
		X1	Y1	Z1	X2	Y2	Z2	X3	Y3	Z3	X4	Y4	Z4	X5	Y5	Z5	X6	Y6	Z6	X7	Y7	Z7	X8	Y8	Z8	X9	Y9	Z9	X10	Y10	Z10	X11	Y11	Z11	X12	Y12	Z12	X13	Y13	Z13	X14	Y14	Z14	X15	Y15	Z15	X16	Y16	Z16	X17	Y17	Z17	X18	Y18	Z18	X19	Y19	Z19	X20	Y20	Z20	X21	Y21	Z21	
81	2.7	-0.3091804591696021	1.835688807334382	-0.5343567394287982	-0.3251908592793816	1.8343471683363168	-0.4737179556983415	-0.36471469223315267	1.6847720575616942	-0.49730240103179474	-0.3717341252261553	1.5584637166690738	-0.3917462473681093	-0.6311868093551141	1.4963218080826979	-0.8658057060420464				-0.3626761105432263	1.5448171770326136	-0.37279087451397325	-0.29317216370274624	1.8385669008136585	-0.5901378813875722	-0.24562995286933187	1.684631520535157	-0.6110644741498493	-0.17373343759993132	1.563482540748965	-0.5777738569574905	-0.3098039549516031	1.4791285407452188	-1.0984315188352474	-0.2960458249781672	1.4860782678033146	-1.1236046006113534	-0.1631425226302413	1.5530069059828282	-0.5535000759923914	-0.34733349434814176	2.0192365206006997	-0.5603111393075118	-0.4090259686540138	2.0900715174005415	-0.6098260895589185	-0.3503025241484391	2.0128011584023375	-0.472696086460694	-0.32011715922781575	1.9005059693329818	-0.44291197424242273	-0.31149400399348837	1.8065221628366708	-0.4175291450523337	-0.34235004268754926	2.025858928500697	-0.647187193757041	-0.3570859536445907	1.9404886871502536	-0.6945466534572221	-0.38909248742549135	1.8701505119564366	-0.7296941522283523
82	2.7333333333333334	-0.3109061518771328	1.837910734239525	-0.5327515336991318	-0.32788976279369786	1.8351976904360119	-0.4750462991072175	-0.36471469223315267	1.6847720575616942	-0.49730240103179474	-0.3717341252261553	1.5584637166690738	-0.3917462473681093	-0.6311868093551141	1.4963218080826979	-0.8658057060420464				-0.3626761105432263	1.5448171770326136	-0.37279087451397325	-0.29584733862532087	1.8407699462137974	-0.5914842436687747	-0.25042978186021997	1.6910576046162584	-0.6108630795680101	-0.17354802898934885	1.566213955282205	-0.5819161602815381	-0.3098558199639052	1.4771702910008746	-1.0986597091191033	-0.2960830490238842	1.4858637012519418	-1.1236036519809376	-0.1667132277278731	1.5579772239140763	-0.5661763482230963	-0.3481351380833963	2.0231631246959583	-0.5636309676731596	-0.4087028765034414	2.096216909132227	-0.6029857713731474	-0.3512879501841576	2.018094209689605	-0.4770835690022153	-0.321242386992328	1.9050775412285101	-0.44562779646868056	-0.31868840832261114	1.8101108721942303	-0.41811646805909697	-0.3422420042716485	2.02784184948172	-0.6469566241229877	-0.35528315262668947	1.9400865367858857	-0.6992995388342772	-0.3598022720125196	1.8435663380812113	-0.7573204997806549
83	2.7666666666666666	-0.31621040306821224	1.843787529956376	-0.5323121891644162	-0.3331699483451346	1.8425858405514586	-0.474946248175007	-0.36471469223315267	1.6847720575616942	-0.49730240103179474	-0.3717341252261553	1.5584637166690738	-0.3917462473681093	-0.6311868093551141	1.4963218080826979	-0.8658057060420464				-0.3626761105432263	1.5448171770326136	-0.37279087451397325	-0.3013274585869055	1.8443202114602564	-0.5906194100180405	-0.25177954467968106	1.6980695525911944	-0.610191142856705	-0.17838576425174238	1.569876535558483	-0.5817012267082294	-0.18079707282370097	1.5250469352704898	-0.6358583370229489	-0.16581724712929563	1.5340936076339158	-0.6479023701097582	-0.17149023260585392	1.5615407975339848	-0.5660641394275516	-0.34305269636844454	2.0270717037687285	-0.5577937560827622	-0.4040013604211122	2.104809789963006	-0.6000613646157942	-0.34811076279686404	2.0230977096418603	-0.4769793101069163	-0.3223676147568402	1.9096491131240385	-0.44834361869493833	-0.32588281265173386	1.8136995815517898	-0.4187037910658602	-0.33903799294484144	2.0321447766902625	-0.6470923245930116	-0.33551589330834447	1.9287888645967346	-0.6891714036637232	-0.8841432004866231	1.7821604175989643	-0.21405785673879832
84	2.8	-0.31610517555267564	1.8505360248846165	-0.5332779082880869	-0.33108255948435245	1.8477249544586598	-0.47787674492714344	-0.36471469223315267	1.6847720575616942	-0.49730240103179474	-0.3717341252261553	1.5584637166690738	-0.3917462473681093	-0.6311868093551141	1.4963218080826979	-0.8658057060420464				-0.3626761105432263	1.5448171770326136	-0.37279087451397325	-0.30028620416661894	1.8514817818963056	-0.5883363488215145	-0.2513219115797892	1.6943303298445247	-0.6103238289509703	-0.17803507527618553	1.5673886330842783	-0.5770566846638442	-0.31551836822776974	1.481312747689174	-1.0948393633398334	-0.3032010479843031	1.4875362367023415	-1.1123289027370844	-0.17245656948569865	1.560992840415361	-0.5644702373288226	-0.33161059982738467	2.0318603390197376	-0.5659685621375727	-0.39433587699661127	2.110580405317567	-0.6058833495617553	-0.3417815026843489	2.0282083472952315	-0.48354174670620964	-0.32349284252135246	1.914220685019567	-0.45105944092119615	-0.33307721698085657	1.8172882909093493	-0.4192911140726234	-0.323383372441978	2.037298715015272	-0.6437865903090346	-0.3193940682012351	1.9390707113798462	-0.686256025502616	-0.31842014142414204	1.8419507551095118	-0.7282922443323769
85	2.8333333333333335	-0.3124506782257427	1.8536167282658487	-0.5381569505127579	-0.32931256954381893	1.8504032704822402	-0.48047196992345664	-0.36471469223315267	1.6847720575616942	-0.49730240103179474	-0.3717341252261553	1.5584637166690738	-0.3917462473681093	-0.6311868093551141	1.4963218080826979	-0.8658057060420464				-0.3626761105432263	1.5448171770326136	-0.37279087451397325	-0.29532532884508084	1.8567334999521916	-0.5988926754483248	-0.2509045294141186	1.6905840860319392	-0.6105275891015933	-0.18217140548930785	1.5735669082598132	-0.5699658927659106	-0.20487894224022474	1.5364103086378222	-0.6094072288269426	-0.18827929236014812	1.5449493138209238	-0.6229517468355193	-0.17513404251713674	1.5687075407456552	-0.5544580017571742	-0.3211419271113403	2.03498402536483	-0.5687828873840359	-0.3689479581818654	2.1170655520206108	-0.6069620839733073	-0.33373999212280714	2.029655584668093	-0.4841133439720901	-0.3246180702858647	1.9187922569150955	-0.453775263147454	-0.34027162130997934	1.8208770002669088	-0.4198784370793867	-0.30617184470006165	2.0414952776629756	-0.6529065327836522	-0.2911140372402496	1.9442771124073912	-0.6898363692390146	-0.2876309123849148	1.8501320784994997	-0.7267727294448142
86	2.8666666666666667	-0.2969652951678018	1.8541855701184995	-0.5502082479247858	-0.31700389459178413	1.852361310219462	-0.49354846830215376	-0.36471469223315267	1.6847720575616942	-0.49730240103179474	-0.3717341252261553	1.5584637166690738	-0.3917462473681093	-0.6311868093551141	1.4963218080826979	-0.8658057060420464				-0.3626761105432263	1.5448171770326136	-0.37279087451397325	-0.2762560469215793	1.8573667467858581	-0.6101908265556577	-0.25314191733921726	1.688219258688783	-0.6081008840893752	-0.1873350319984472	1.5706501281120109	-0.5683921258268856	-0.20765036512782994	1.534390248530093	-0.6105035273375841	-0.19318717848944525	1.5433264425065032	-0.6217076681005163	-0.17708962663221642	1.5642865045369385	-0.5520346395838496	-0.3014005590564947	2.0348975180605926	-0.5679779376436886	-0.34793429219332256	2.1187086440793226	-0.619333891650701	-0.3196632401902291	2.02849909626429	-0.49003538219444837	-0.31717464739722356	1.9250780528562423	-0.45719119413898707	-0.3358831339543633	1.8352110332530347	-0.4296232830711733	-0.2788207312567588	2.042706965265975	-0.6557079327807682	-0.26644751425368957	1.9465168851044519	-0.6857036579911283	-0.2592472768431067	1.8614158068446707	-0.7265659265749143
87	2.9	-0.2806536682191033	1.850315758414045	-0.5652321873704834	-0.30225486408105895	1.8475575658973709	-0.5113921093247378	-0.36471469223315267	1.6847720575616942	-0.49730240103179474	-0.3717341252261553	1.5584637166690738	-0.3917462473681093	-0.6311868093551141	1.4963218080826979	-0.8658057060420464				-0.3626761105432263	1.5448171770326136	-0.37279087451397325	-0.25889309306650937	1.8542945188291415	-0.622334811168131	-0.24685719216724264	1.6866780980664815	-0.614295014660482	-0.18581915340182492	1.5681836865208978	-0.5693688644595345	-0.20663302063702757	1.5336447370649622	-0.6074308616357613	-0.18985073528953267	1.541220396604062	-0.6210149409094058	-0.17633127848087266	1.5595903238575233	-0.5480408610939763	-0.2819404533221375	2.0324671274129438	-0.5837385614947013	-0.32009899273383186	2.11599742868321	-0.619142657628414	-0.3047489516664674	2.0261258274353513	-0.5014125641863146	-0.30508338408829727	1.92041867089495	-0.4691063855585617	-0.3251393506836054	1.8447308825255915	-0.4372760132224907	-0.25461823961696867	2.0391606173855577	-0.6684316619012388	-1.2725395968794182	1.8603871426809266	0.3738453630369697	-0.2325193404086563	1.8549551982962593	-0.7212759623797592
88	2.933333333333333	-0.2693935411223105	1.8486687513865816	-0.5777904035598451	-0.29243931362878745	1.8455791041725318	-0.5186426043531722	-0.35337420954741955	1.6867185464986179	-0.5045633384308963	-0.3717341252261553	1.5584637166690738	-0.3917462473681093	-0.6311868093551141	1.4963218080826979	-0.8658057060420464				-0.3626761105432263	1.5448171770326136	-0.37279087451397325	-0.24408473937988895	1.853127922220436	-0.6344469550445228	-0.23955421300081856	1.683366730288755	-0.6256724787947927	-0.18373388896046103	1.568370600584475	-0.5715603938088658	-0.34547174382987494	1.4824279761219743	-1.080023159970224	-0.32796538564937316	1.4872789162173234	-1.1027890477392008	-0.17333979039233233	1.559954669012324	-0.5468771527191608	-0.26536976598443257	2.0318722957387183	-0.5929638222319097	-0.3014256361799651	2.1139644765463834	-0.6297162186912266	-0.2917275707308711	2.0250465017786254	-0.5112832642743135	-0.29254754097414676	1.9213152693218452	-0.48096903365219357	-0.31439556741284747	1.8542507317981483	-0.44492874337380806	-0.22994536286763462	2.037109068664054	-0.6701091883131206	-1.3153207920795835	1.8606458350192523	0.44988311808862436	-0.20579140397420584	1.8484945897478477	-0.7159859981846042
